<svg width="8" height="8" viewBox="0 0 8 8" fill="none" xmlns="http://www.w3.org/2000/svg">
<g clip-path="url(#clip0_743_2783)">
<path d="M3.54682 2.61061C3.56144 2.63987 3.57607 2.66912 3.59069 2.69105C3.60532 2.71299 3.62726 2.73493 3.64188 2.75687C3.66382 2.7788 3.68576 2.80074 3.71501 2.82268C3.73695 2.83731 3.7662 2.85924 3.80276 2.86656C3.83201 2.88118 3.86126 2.88849 3.89782 2.89581C3.93439 2.90312 3.96364 2.90312 3.99289 2.90312C4.02214 2.90312 4.0587 2.90312 4.08795 2.89581C4.1172 2.88849 4.14645 2.88118 4.16839 2.86656L4.1757 2.86656C4.20495 2.85193 4.2342 2.83731 4.26345 2.81537C4.28539 2.80074 4.30733 2.7788 4.32927 2.75687L4.33658 2.74955C4.35852 2.72762 4.37314 2.70568 4.38777 2.68374C4.40239 2.6618 4.41702 2.63987 4.42433 2.61061C4.42433 2.6033 4.42433 2.6033 4.43164 2.59599C4.44627 2.56674 4.45358 2.53018 4.46089 2.50093C4.46821 2.47168 4.46821 2.43511 4.46821 2.40586C4.46821 2.37661 4.46821 2.34005 4.46089 2.3108C4.45358 2.28155 4.44627 2.2523 4.43164 2.21573C4.40971 2.16455 4.38046 2.12067 4.34389 2.08411C4.33658 2.07679 4.33658 2.07679 4.32927 2.06948C4.30733 2.04754 4.28539 2.03292 4.25614 2.01098C4.22689 1.99636 4.20495 1.98173 4.1757 1.9671C4.14645 1.95248 4.1172 1.94517 4.08795 1.93785C4.05139 1.93054 4.02214 1.93054 3.99289 1.93054C3.96364 1.93054 3.92707 1.93054 3.89782 1.93785C3.86857 1.94517 3.83932 1.95248 3.81007 1.96711L3.80276 1.96711C3.77351 1.98173 3.74426 1.99636 3.72232 2.01098C3.69307 2.03292 3.67113 2.04754 3.64919 2.06948C3.62726 2.09142 3.60532 2.11336 3.59069 2.1353C3.57607 2.15723 3.56144 2.18648 3.54682 2.21573C3.53219 2.24498 3.52488 2.27423 3.51757 2.30349C3.51025 2.34005 3.51025 2.3693 3.51025 2.39855C3.51025 2.4278 3.51025 2.46436 3.51757 2.49361C3.52488 2.55211 3.5395 2.58136 3.54682 2.61061Z" fill="#144B98"/>
<path d="M4.56285 5.28702L4.39466 5.28702L4.39466 3.49543C4.39466 3.39305 4.31422 3.3053 4.20453 3.3053L3.43671 3.3053C3.33433 3.3053 3.24658 3.38574 3.24658 3.49543L3.24658 3.89031C3.24658 3.99268 3.32702 4.08044 3.43671 4.08044L3.59027 4.08044L3.59027 5.29433L3.43671 5.29433C3.33433 5.29433 3.24658 5.37477 3.24658 5.48446L3.24658 5.87934C3.24658 5.98172 3.32702 6.06947 3.43671 6.06947L4.56285 6.06947C4.66523 6.06947 4.75298 5.98903 4.75298 5.87934L4.75298 5.48446C4.75298 5.37477 4.66523 5.28702 4.56285 5.28702Z" fill="#144B98"/>
<path d="M4 -3.49691e-07C1.79159 -1.56626e-07 1.56626e-07 1.79159 3.49691e-07 4C5.42756e-07 6.20841 1.79159 8 4 8C6.20841 8 8 6.20841 8 4C8 1.79159 6.20841 -5.42756e-07 4 -3.49691e-07ZM4 7.47349C2.0841 7.47349 0.526509 5.9159 0.526509 4C0.526508 2.08409 2.0841 0.526508 4 0.526508C5.91591 0.526508 7.47349 2.08409 7.47349 4C7.47349 5.9159 5.91591 7.47349 4 7.47349Z" fill="#144B98"/>
</g>
<defs>
<clipPath id="clip0_743_2783">
<rect width="8" height="8" fill="white"/>
</clipPath>
</defs>
</svg>
