<svg width="12" height="12" viewBox="0 0 12 12" fill="none" xmlns="http://www.w3.org/2000/svg">
<g clip-path="url(#clip0_348_8)">
<path d="M10.4723 11.5773L8.89027 8.2309C8.8587 8.16413 8.80399 8.11297 8.73839 8.08505L7.95136 7.73469L9.31507 5.44911C9.31833 5.44362 9.3214 5.43807 9.32433 5.4324C9.59545 4.9032 9.73294 4.33135 9.73294 3.73283C9.73294 2.72597 9.33811 1.78205 8.62118 1.07497C7.90437 0.368044 6.95473 -0.0137763 5.94727 0.000379973C4.9688 0.0139503 4.04752 0.406974 3.35309 1.1071C2.65873 1.80718 2.27313 2.73162 2.26732 3.71021C2.26376 4.30822 2.40506 4.90372 2.67586 5.43237C2.67877 5.43802 2.68184 5.4436 2.68509 5.44908L4.04878 7.73464L3.2572 8.08693C3.19245 8.11573 3.14018 8.1668 3.1099 8.23088L1.52794 11.5773C1.47499 11.6892 1.49733 11.8223 1.58391 11.9108C1.67046 11.9994 1.80293 12.0247 1.91606 11.9744L3.89789 11.0921L5.87972 11.9744C5.95638 12.0085 6.04392 12.0085 6.12059 11.9744L8.10241 11.0921L10.0842 11.9744C10.123 11.9916 10.164 12 10.2046 12C10.2827 12 10.3595 11.9691 10.4164 11.9109C10.5029 11.8223 10.5252 11.6893 10.4723 11.5773ZM3.1987 5.15405C2.97066 4.70565 2.85654 4.22112 2.85956 3.71375C2.86959 2.01619 4.25845 0.616013 5.95552 0.592505C6.80316 0.581114 7.60231 0.901857 8.20535 1.49663C8.80859 2.09154 9.14077 2.8857 9.14077 3.73285C9.14077 4.23345 9.02665 4.71153 8.80156 5.15405L6.25442 9.42315C6.17665 9.55346 6.0507 9.56752 6.00014 9.56752C5.94956 9.56752 5.82361 9.55346 5.74587 9.42315L3.1987 5.15405ZM8.22279 10.4975C8.14613 10.4633 8.05859 10.4633 7.98192 10.4975L6.00009 11.3798L4.01827 10.4975C3.9416 10.4633 3.85406 10.4633 3.7774 10.4975L2.40448 11.1087L3.59834 8.58333L4.35438 8.24687L5.23723 9.72654C5.39904 9.99776 5.68423 10.1597 6.00005 10.1597C6.31587 10.1597 6.60106 9.99776 6.76287 9.72657L7.64571 8.24689L8.40183 8.58347L9.59562 11.1087L8.22279 10.4975Z" fill="#144B98"/>
<path d="M6.00031 2.38147C5.25514 2.38147 4.64893 2.98768 4.64893 3.73283C4.64893 4.47798 5.25514 5.08419 6.00031 5.08419C6.74546 5.08421 7.35167 4.47798 7.35167 3.73283C7.35167 2.98768 6.74546 2.38147 6.00031 2.38147ZM6.00031 4.49202C5.58169 4.49204 5.2411 4.15149 5.2411 3.73283C5.2411 3.31421 5.58167 2.97364 6.00031 2.97364C6.41893 2.97364 6.7595 3.31421 6.7595 3.73283C6.7595 4.15145 6.41893 4.49202 6.00031 4.49202Z" fill="#144B98"/>
</g>
<defs>
<clipPath id="clip0_348_8">
<rect width="12" height="12" fill="white"/>
</clipPath>
</defs>
</svg>
