<svg width="25" height="25" viewBox="0 0 25 25" fill="none" xmlns="http://www.w3.org/2000/svg">
<path d="M12.4999 6.23877C9.04717 6.23877 6.23828 9.04817 6.23828 12.5008C6.23828 15.9535 9.04717 18.7629 12.4999 18.7629C15.952 18.7629 18.7615 15.9541 18.7615 12.5008C18.7615 9.04762 15.952 6.23877 12.4999 6.23877Z" fill="#FFE400"/>
<path d="M12.5001 4.39784C11.8253 4.39784 11.2783 3.85088 11.2783 3.17659V1.22181C11.2783 0.546962 11.8253 0 12.5001 0C13.1749 0 13.7219 0.546962 13.7219 1.22181V3.17659C13.7219 3.85088 13.1744 4.39784 12.5001 4.39784Z" fill="#FFE400"/>
<path d="M12.4998 20.6018C11.825 20.6018 11.2781 21.1487 11.2781 21.8235V23.7777C11.2781 24.453 11.825 25 12.4998 25C13.1747 25 13.7216 24.453 13.7216 23.7777V21.8235C13.7216 21.1487 13.1741 20.6018 12.4998 20.6018Z" fill="#FFE400"/>
<path d="M18.2286 6.7711C17.7519 6.29389 17.7519 5.52051 18.2286 5.0433L19.6109 3.66096C20.0875 3.1843 20.8614 3.1843 21.3386 3.66096C21.8158 4.13816 21.8158 4.9121 21.3386 5.38875L19.9563 6.7711C19.4797 7.24831 18.7063 7.24831 18.2286 6.7711Z" fill="#FFE400"/>
<path d="M6.7712 18.2298C6.29401 17.752 5.52065 17.752 5.04346 18.2298L3.66115 19.6115C3.18452 20.0881 3.18396 20.8626 3.66115 21.3392C4.13834 21.8158 4.91226 21.8158 5.38889 21.3392L6.7712 19.9564C7.24839 19.4797 7.24839 18.7058 6.7712 18.2298Z" fill="#FFE400"/>
<path d="M20.6018 12.5002C20.6018 11.8253 21.1487 11.2783 21.8236 11.2783H23.7782C24.4531 11.2783 25 11.8253 25 12.5002C25 13.1751 24.4531 13.7215 23.7782 13.7215H21.8236C21.1487 13.7215 20.6018 13.1751 20.6018 12.5002Z" fill="#FFE400"/>
<path d="M4.39764 12.5002C4.39764 11.8253 3.85071 11.2783 3.17589 11.2783H1.22175C0.546938 11.2783 0 11.8253 0 12.5002C0 13.1751 0.546938 13.7215 1.22175 13.7215H3.17645C3.85071 13.7215 4.39764 13.1751 4.39764 12.5002Z" fill="#FFE400"/>
<path d="M18.2285 18.23C18.7057 17.7534 19.4796 17.7534 19.9562 18.23L21.3385 19.6123C21.8156 20.0884 21.8156 20.8629 21.3385 21.3395C20.8613 21.8162 20.0879 21.8162 19.6108 21.3395L18.2285 19.9572C17.7513 19.48 17.7513 18.7067 18.2285 18.23Z" fill="#FFE400"/>
<path d="M6.77108 6.7709C7.24826 6.29371 7.24826 5.52034 6.77108 5.04314L5.38881 3.66137C4.91163 3.18417 4.13829 3.18417 3.66111 3.66137C3.18393 4.13801 3.18393 4.91194 3.66111 5.38858L5.04338 6.7709C5.52056 7.24866 6.2939 7.24866 6.77108 6.7709Z" fill="#FFE400"/>
</svg>
