<svg width="25" height="25" viewBox="0 0 25 25" fill="none" xmlns="http://www.w3.org/2000/svg">
<path d="M23.9582 11.4577H16.8916V10.576C16.8916 10.3076 16.7879 10.0542 16.6092 9.86385L19.5863 6.88769C19.9932 6.481 19.9932 5.82168 19.5863 5.41504C19.1795 5.00835 18.52 5.00835 18.1132 5.41504L14.7731 8.75399L13.5416 8.04467V1.0445C13.5416 0.469405 13.0752 0.00314713 12.5 0.00314713C11.9247 0.00314713 11.4583 0.469356 11.4583 1.0445V8.04462L10.2268 8.75394L6.88674 5.41499C6.47991 5.0083 5.82039 5.0083 5.41355 5.41499C5.00677 5.82168 5.00677 6.481 5.41355 6.88764L8.39074 9.8638C8.21208 10.0542 8.10832 10.3075 8.10832 10.576V11.4576H1.0417C0.466356 11.4577 0 11.9239 0 12.499C0 13.0741 0.466356 13.5403 1.0417 13.5403H8.10837V14.4219C8.10837 14.6904 8.21218 14.9438 8.39084 15.1342L5.4136 18.1104C5.00682 18.517 5.00682 19.1764 5.4136 19.583C5.61702 19.7863 5.88367 19.888 6.15022 19.888C6.41687 19.888 6.68337 19.7863 6.88684 19.583L10.2269 16.2441L11.4584 16.9534V23.9535C11.4584 24.5286 11.9248 24.9948 12.5 24.9948C13.0753 24.9948 13.5417 24.5286 13.5417 23.9535V16.9534L14.7732 16.2441L18.1133 19.583C18.3167 19.7863 18.5833 19.888 18.8499 19.888C19.1165 19.888 19.383 19.7863 19.5865 19.583C19.9933 19.1763 19.9933 18.517 19.5865 18.1104L16.6093 15.1342C16.788 14.9439 16.8918 14.6904 16.8918 14.4219V13.5403H23.9584C24.5336 13.5403 25.0001 13.0741 25.0001 12.499C24.9999 11.9239 24.5335 11.4577 23.9582 11.4577ZM10.1917 13.8201V11.1778L12.5 9.84823L14.8082 11.1778V13.8201L12.5 15.1497L10.1917 13.8201Z" fill="#43A8ED"/>
</svg>
